<?xml version="1.0" encoding="UTF-8"?>
<svg width="947px" height="873px" viewBox="0 0 947 873" version="1.1" xmlns="http://www.w3.org/2000/svg" xmlns:xlink="http://www.w3.org/1999/xlink">
    <title>Slice 1</title>
    <g id="页面-1" stroke="none" stroke-width="1" fill="none" fill-rule="evenodd">
        <g id="书" transform="translate(0, 167)" fill="#98EFE4" fill-rule="nonzero">
            <path d="M362.115643,223.068981 L139.774529,223.068981 C132.468381,223.068981 126.587259,228.97258 126.587259,236.264064 C126.587259,243.518588 132.468381,249.422186 139.774529,249.422186 L362.116566,249.422186 C369.367302,249.422186 375.267818,243.519512 375.267818,236.264064 C375.267818,228.973504 369.367302,223.068981 362.115643,223.068981 Z M362.115643,331.495974 L139.774529,331.495974 C132.468381,331.495974 126.587259,337.417129 126.587259,344.689209 C126.587259,351.981618 132.468381,357.866736 139.774529,357.866736 L362.116566,357.866736 C369.367302,357.866736 375.267818,351.982542 375.267818,344.689209 C375.267818,337.416205 369.367302,331.495974 362.115643,331.495974 Z M362.115643,439.959004 L139.774529,439.959004 C132.468381,439.959004 126.587259,445.878311 126.587259,453.150391 C126.587259,460.425243 132.468381,466.327918 139.774529,466.327918 L362.116566,466.327918 C369.367302,466.327918 375.267818,460.425243 375.267818,453.150391 C375.267818,445.878311 369.367302,439.959004 362.115643,439.959004 Z M571.009972,236.264064 C571.009972,243.518588 576.89017,249.422186 584.161223,249.422186 L806.50049,249.422186 C813.789091,249.422186 819.671136,243.519512 819.671136,236.264064 C819.671136,228.973504 813.790938,223.068981 806.50049,223.068981 L584.16307,223.068981 C576.893864,223.068981 571.009972,228.973504 571.009972,236.264064 Z M806.504184,331.495974 L584.16307,331.495974 C576.89294,331.495974 571.011819,337.417129 571.011819,344.689209 C571.011819,351.981618 576.89294,357.866736 584.16307,357.866736 L806.504184,357.866736 C813.790938,357.866736 819.672983,351.982542 819.672983,344.689209 C819.672983,337.416205 813.790938,331.495974 806.504184,331.495974 Z M806.504184,439.959004 L584.16307,439.959004 C576.89294,439.959004 571.011819,445.878311 571.011819,453.150391 C571.011819,460.425243 576.89294,466.327918 584.16307,466.327918 L806.504184,466.327918 C813.790938,466.327918 819.672983,460.425243 819.672983,453.150391 C819.672983,445.878311 813.790938,439.959004 806.504184,439.959004 Z M693.789463,0 C612.183363,0 521.034293,12.4918999 473.500462,44.5814553 C425.96386,12.4918999 334.835108,0 253.21146,0 C136.389744,0 0,25.5400631 0,97.5817064 L0,673.073989 C0,682.826154 4.28985692,692.004499 11.7253011,698.261075 C19.1607452,704.516727 28.9641535,707.179768 38.5440643,705.513751 C103.317671,694.30255 177.524346,688.377699 253.209613,688.377699 C328.896727,688.377699 403.102478,694.300702 467.877009,705.513751 C468.76361,705.681923 469.632664,705.681923 470.521112,705.774326 C471.223005,705.829767 471.906427,705.884285 472.610166,705.904613 C472.904777,705.94065 473.204004,706 473.499538,706 C475.256117,706 477.013619,705.848248 478.75265,705.534079 C478.862552,705.513751 478.972454,705.534079 479.121144,705.513751 C543.897522,694.30255 618.103273,688.377699 693.790387,688.377699 C769.473807,688.377699 843.699876,694.300702 908.455936,705.513751 C910.32611,705.847324 912.227685,706 914.077542,706 C921.771578,706 929.281829,703.312722 935.271928,698.261075 C942.710143,692.004499 947,682.828002 947,673.073989 L947,97.5817064 C947,25.5382151 810.608409,0 693.789463,0 Z M65.844917,634.674264 L65.844917,101.745365 C79.160559,88.6972018 144.93344,65.8811657 253.209613,65.8811657 C361.468239,65.8811657 427.258667,88.6981258 440.574309,101.745365 L440.574309,634.674264 C382.016146,626.662964 318.058027,622.478977 253.209613,622.478977 C188.363046,622.478053 124.385533,626.66204 65.844917,634.674264 Z M881.15416,634.67334 C764.056304,618.684004 623.484758,618.684004 506.421997,634.67334 L506.421997,101.745365 C519.738562,88.6972018 585.51329,65.8811657 693.789463,65.8811657 C802.064713,65.8811657 867.835747,88.6981258 881.15416,101.745365 L881.15416,634.67334 L881.15416,634.67334 Z" id="形状"></path>
        </g>
        <g id="walrus" transform="translate(393, 1)">
            <path d="M3.16390801,135.869836 C8.09433698,118.718464 30.9174927,46.9219937 36.4045736,34.5570903 C43.1639492,19.4000798 54.2176915,1.53076526 80.4602402,2.00941219 C106.702931,1.53076526 117.836112,19.4000798 124.516049,34.5570903 C130.08271,46.9219937 152.825704,118.718464 157.836011,135.869836 C189.566066,244.043388 -28.5657215,244.043388 3.16390801,135.869836 Z" id="路径" stroke="#000000" stroke-width="1.65919" fill="#98EFE4"></path>
            <path d="M126,34 C125.75997,33.3645747 125.519939,32.888112 125.280051,32.4115076 C118.560055,17.320971 107.359966,-0.390561094 80.9600425,0.00655918383 C54.5601186,-0.390561094 43.4400875,17.320971 36.6400336,32.4115076 C36.4800609,32.888112 36.2400304,33.3645747 36,34 C46.6401129,27.9638137 60.9600266,23.8337617 80.9600425,23.9925826 C100.960058,23.8337617 115.279972,27.9638137 126,34 Z" id="路径" stroke="#000000" stroke-width="1.65919" fill="#E9CCFF"></path>
            <path d="M81,10.0123908 C80.6784513,10.0123908 80.3567592,10.0123908 80.0352105,10.0123908 C61.7842378,9.77324506 44.8196034,12.961898 36.5383616,22.5275867 C32.3575113,27.390132 30.2671579,33.6079505 28.2571199,39.4270506 C27.5334202,41.6591062 28.3374354,45.4853248 30.6691655,47 C42.9704832,40.0648011 57.6838464,34.8833093 80.6784513,35.1224836 L81,35.1224836 L81,10.0123908 Z" id="路径" stroke="#000000" stroke-width="1.65919" fill="#E9CCFF"></path>
            <path d="M80,10.0123908 C80.3213463,10.0123908 80.642836,10.0123908 80.9641823,10.0123908 C99.203667,9.77324506 116.157623,12.961898 124.433652,22.5275867 C128.611871,27.390132 130.781317,33.6079505 132.709681,39.4270506 C133.513191,41.6591062 132.629417,45.4853248 130.299154,47 C118.005579,40.0648011 103.301477,34.8833093 80.3213463,35.1224836 L80,35.1224836 L80,10.0123908 Z" id="路径" stroke="#000000" stroke-width="1.65919" fill="#E9CCFF"></path>
            <path d="M40.6568179,48 L73.6177277,48 C76.4907706,48 78.8850441,50.2293979 79.1244999,53.0959696 C79.4436795,53.4940967 79.9225911,54.0514462 81.3590414,54.0514462 C82.4764545,54.1309864 83.1148135,53.5736369 83.5138591,53.0959696 C83.6735912,50.2293979 86.1475885,48 89.0206314,48 L121.981541,48 C125.014316,48 126.530632,50.5479848 127.488313,53.4940967 L131,64.3230677 C131,64.3230677 126.929678,71.2503082 126.051863,72.2057847 C125.094182,73.4001659 123.577723,74.1964201 121.981541,73.9576575 L89.0206314,69.2596729 C86.0677224,68.7820056 83.5138591,66.7913703 83.5138591,63.7655762 L83.5138591,60.341797 L79.1244999,60.341797 L79.1244999,63.7655762 C79.1244999,66.7913703 76.6503603,68.7820056 73.6177277,69.2596729 L40.6568179,73.9576575 C38.8211797,74.1964201 37.2249974,73.2409435 36.2673164,71.8076577 C35.5490913,70.8521811 31,64.3230677 31,64.3230677 L35.1500457,53.4940967 C36.2673164,50.627525 37.624043,48 40.6568179,48 Z" id="路径" stroke="#000000" stroke-width="1.65919" fill="#000000"></path>
            <path d="M34.0199639,43 L66.6418895,43 C69.6360781,43 72,45.4724712 72,48.5030588 L72,63.5767534 C72,66.5276711 69.6360781,69 66.6418895,69 L39.6933484,69 C39.2205078,69 32.050029,64.8527529 31.4197623,64.5337886 C30.789355,64.214682 31.262055,54.404894 30.7105014,54.2454119 C29.3709737,53.8466354 26.8494851,63.9755299 27.0070518,62.7792005 L28.6618534,48.5030588 C28.9769867,45.5521411 31.0257753,43 34.0199639,43 Z" id="路径" stroke="#000000" stroke-width="1.65919" fill="#E9CCFF"></path>
            <path d="M128.184827,43 L95.3871431,43 C92.3766683,43 90,45.4724712 90,48.5030588 L90,63.5767534 C90,66.5276711 92.3766683,69 95.3871431,69 L123.114658,69 C123.590048,69 130.165384,64.8527529 130.79919,64.5337886 C131.432997,64.214682 130.957607,54.404894 131.512134,54.2454119 C132.938164,53.8466354 135.077137,63.9755299 134.997858,62.7792005 L133.651107,48.5030588 C133.334275,45.5521411 131.195302,43 128.184827,43 Z" id="路径" stroke="#000000" stroke-width="1.65919" fill="#E9CCFF"></path>
            <path d="M40.486599,43 L73.3267613,43 C76.1892792,43 78.5747817,45.3128468 78.8133603,48.1042823 C79.1313706,48.582871 79.6085278,49.1411296 81.0398577,49.1411296 C82.1530354,49.1411296 82.7891978,48.6625409 83.1867815,48.1840945 C83.3457867,45.3128468 85.8107208,43 88.6733805,43 L121.513401,43 C124.535066,43 127,45.4724712 127,48.5030588 L127,63.5767534 C127,66.5276711 124.535066,69 121.513401,69 L88.6733805,69 C85.6517157,69 83.1867815,66.5276711 83.1867815,63.5767534 L83.1867815,60.1472471 L78.8133603,60.1472471 L78.8133603,63.5767534 C78.8133603,66.5276711 76.3482843,69 73.3267613,69 L40.486599,69 C37.4649341,69 35,66.5276711 35,63.5767534 L35,48.5030588 C35,45.4724712 37.4649341,43 40.486599,43 Z" id="路径" stroke="#000000" stroke-width="1.65919" fill="#E9CCFF"></path>
            <path d="M40.7406448,47 L73.2593552,47 C74.208785,47 75,47.8050945 75,48.7711791 L75,64.2288209 C75,65.1949055 74.208785,66 73.2593552,66 L40.7406448,66 C39.791215,66 39,65.1949055 39,64.2288209 L39,48.7711791 C39,47.8050945 39.791215,47 40.7406448,47 Z" id="路径" stroke="#000000" stroke-width="1.65919" fill="#000000"></path>
            <path d="M121.259355,47 L88.7406448,47 C87.791215,47 87,47.8050945 87,48.7711791 L87,64.2288209 C87,65.1949055 87.791215,66 88.7406448,66 L121.259355,66 C122.287963,66 123,65.1949055 123,64.2288209 L123,48.7711791 C123,47.8050945 122.287963,47 121.259355,47 Z" id="路径" stroke="#000000" stroke-width="1.65919" fill="#000000"></path>
            <path d="M68.4281918,76.5539393 C56.4440985,79.1038952 39.6187995,96.2364601 35.8886532,106.35654 C34.3807668,110.420634 33.3489881,114.165895 32.7140364,117.672067 C26.1268199,155.044791 66.9203055,159.667376 80.9678147,145.880643 C95.094746,159.667376 135.80881,155.044791 129.301015,117.672067 C128.666063,114.165895 127.634285,110.420634 126.126398,106.35654 C122.396252,96.2364601 105.570953,79.1038952 93.5868597,76.5539393 C85.7297399,74.4820202 75.9679066,74.4820202 68.4281918,76.5539393 Z" id="路径" stroke="#000000" stroke-width="1.65919" fill="#000000"></path>
            <path d="M79.4999292,131 C95.2186273,131 108,140.004069 108,150.999645 C108,162.076524 95.2186273,171 79.4999292,171 C63.7019282,171 51,162.076524 51,150.999645 C51,140.004069 63.7019282,131 79.4999292,131 Z" id="路径" stroke="#000000" stroke-width="1.65919" fill="#000000"></path>
            <path d="M80.4999292,125 C96.2980718,125 109,134.004147 109,144.999787 C109,156.076587 96.2980718,165 80.4999292,165 C64.7813727,165 52,156.076587 52,144.999787 C52,134.004147 64.7813727,125 80.4999292,125 Z" id="路径" stroke="#000000" stroke-width="1.65919" fill="#98EFE4"></path>
            <path d="M70.5201506,86.3095301 C60.4377028,88.2936988 46.3859178,102.420867 43.289781,110.674952 C42.0194911,114.008327 41.1461491,117.103573 40.5904504,120.040115 C35.1126263,150.675453 69.2498608,154.485227 80.9994047,143.135187 C92.8283949,154.485227 126.886183,150.675453 121.408359,120.040115 C120.932107,117.103573 120.058765,114.008327 118.788475,110.674952 C115.692338,102.420867 101.640553,88.2936988 91.5581051,86.3095301 C84.9688835,84.56349 76.7918705,84.56349 70.5201506,86.3095301 Z" id="路径" stroke="#000000" stroke-width="1.65919" fill="#000000"></path>
            <path d="M67.9282085,65.6155778 C55.3727551,68.1685948 37.8908011,85.8004798 33.996945,96.0923875 C32.4871721,100.320755 31.3747227,104.230049 30.7389767,107.820269 C23.9050961,146.115952 66.3389142,150.822361 81.0397449,136.701426 C95.6610541,150.822361 138.094872,146.115952 131.260992,107.820269 C130.625246,104.230049 129.592176,100.320755 128.002882,96.0923875 C124.109167,85.8004798 106.627072,68.1685948 94.0717598,65.6155778 C85.8870075,63.4614741 75.7156373,63.4614741 67.9282085,65.6155778 Z" id="路径" stroke="#000000" stroke-width="1.65919" fill="#98EFE4"></path>
            <path d="M46,92 C32.9776204,93.9830993 23.2903683,96.2712279 14,101" id="路径" stroke="#000000" stroke-width="1.65919"></path>
            <path d="M115,92 C127.990065,93.9830993 137.653279,96.2712279 147,101" id="路径" stroke="#000000" stroke-width="1.65919"></path>
            <path d="M44,108 C38.6154476,109.133285 23.3326133,112.290397 9,125" id="路径" stroke="#000000" stroke-width="1.65919"></path>
            <path d="M117,108 C122.396856,109.133285 137.635188,112.290397 152,125" id="路径" stroke="#000000" stroke-width="1.65919"></path>
            <path d="M42,123 C37.0399642,125.967976 25.4399564,140.326646 20.6398941,151.636351 C20.4000052,152.278826 20.4799206,152.599348 20,153" id="路径" stroke="#000000" stroke-width="1.65919"></path>
            <path d="M120,123 C124.941878,125.967976 136.499893,140.326646 141.281952,151.636351 C141.601874,152.278826 141.441202,152.599348 142,153" id="路径" stroke="#000000" stroke-width="1.65919"></path>
            <path d="M94.0457553,148.227074 C97.0546616,147.350995 100.226184,159.290946 93.9643747,163.828951 C93.8829941,163.908465 88.922404,168.047478 92.0126909,170.195789 C95.4282101,172.584063 98.0305035,181.579139 98.3557358,188.981085 C98.9249648,201.320028 95.834823,214.214153 93.8829941,217 C94.8589811,216.920486 102.503245,215.646834 102.503245,215.328776 C102.421865,214.931204 105.34939,196.384451 105.34939,191.92738 C105.268155,179.508922 106,166.773826 106,154.19634 C106,148.545132 104.373548,148.545132 98.2745003,148.147559 C97.7051262,148.068045 94.8589811,147.909016 94.4523682,148.068045 L94.0457553,148.227074 Z" id="路径" fill="#000000"></path>
            <path d="M66.9163332,148.227074 C63.9169693,147.350995 60.8364829,159.290946 67.0784337,163.828951 C67.1595562,163.908465 72.0234365,168.047478 69.0240726,170.195789 C65.6193853,172.584063 62.9442222,181.579139 62.6200213,188.981085 C62.0524529,201.320028 65.1329394,214.214153 67.1595562,217 C66.1056865,216.920486 58.4856652,215.646834 58.5667877,215.328776 C58.5667877,214.931204 55.6484017,196.384451 55.6484017,191.92738 C55.7295242,179.508922 55,166.773826 55,154.19634 C55,148.545132 56.6211488,148.545132 62.7009992,148.147559 C63.3495455,148.068045 66.186809,147.909016 66.5110099,148.068045 L66.9163332,148.227074 Z" id="路径" fill="#000000"></path>
            <path d="M70.5342507,72.9405378 C72.3938428,73.6568717 76.0324008,76.7613167 79.9135582,77 C80.075243,77 80.2369279,77 80.3178424,77 C80.4795273,77 80.6412121,77 80.7221267,77 C84.7648247,76.7613167 88.4842972,73.6568717 90.4248038,72.9405378 C90.263119,72.5425429 88.5650675,70.4730549 87.9183282,68.9605893 C86.8671603,66.8114455 90.5057184,65.8562863 92.6079098,66.0951116 C97.4593205,66.5726202 88.7268966,60.9211786 80.3178424,61.0008344 C71.1809901,60.9211786 63.9847886,66.652276 68.2702302,66.0951116 C70.2916514,65.7767725 74.0109797,66.8114455 72.9599561,68.9605893 C72.3130725,70.4730549 70.6959356,72.5425429 70.5342507,72.9405378 Z" id="路径" stroke="#000000" stroke-width="1.65919" fill="#98EFE4" stroke-linecap="round" stroke-linejoin="round"></path>
            <path d="M62,144.63929 C58.8126494,145.037461 54.509591,144.720058 50.604827,143.766432 C44.7080222,142.177999 40.56431,139.476672 40.56431,139 C37.9347422,160.129698 38.4127808,189.441312 43.5924566,211.047398 C44.548676,215.17789 47.4970784,243.854698 56.3422856,242.980422 C60.645344,242.504317 59.3704322,222.009142 59.3704322,198.41787 C59.3704322,176.572315 60.645344,152.106766 62,144.63929 Z" id="路径" stroke="#000000" stroke-width="1.65919" fill="#F7F7F7"></path>
            <path d="M99,144.63929 C102.182034,145.037461 106.557332,144.720058 110.455267,143.766432 C116.262367,142.177999 120.478591,139.476672 120.398983,139 C123.103797,160.129698 122.546828,189.441312 117.455629,211.047398 C116.501048,215.17789 113.557694,243.854698 104.727634,242.980422 C100.352336,242.504317 101.625207,222.009142 101.704814,198.41787 C101.704814,176.572315 100.352336,152.106766 99,144.63929 Z" id="路径" stroke="#000000" stroke-width="1.65919" fill="#F7F7F7"></path>
            <line x1="52" y1="48" x2="41" y2="59" id="路径" stroke="#FFFFFF" stroke-width="1.65919"></line>
            <line x1="120" y1="49" x2="104" y2="65" id="路径" stroke="#FFFFFF" stroke-width="1.65919"></line>
            <line x1="60" y1="49" x2="45" y2="64" id="路径" stroke="#FFFFFF" stroke-width="1.65919"></line>
            <line x1="106" y1="49" x2="91" y2="64" id="路径" stroke="#FFFFFF" stroke-width="1.65919"></line>
            <line x1="80.5" y1="137" x2="80.5" y2="118" id="路径" stroke="#000000" stroke-width="1.65919"></line>
            <path d="M49,86 C49.5,86 50,86.4209933 50,86.9473289 C50,87.5790067 49.5,88 49,88 C48.3999286,88 48,87.5790067 48,86.9473289 C48,86.4209933 48.3999286,86 49,86 Z" id="路径" fill="#000000"></path>
            <path d="M59.0524833,92 C59.5788189,92 60,92.5 60,93 C60,93.599893 59.5788189,94 59.0524833,94 C58.4209933,94 58,93.599893 58,93 C58,92.5 58.4209933,92 59.0524833,92 Z" id="路径" fill="#000000"></path>
            <path d="M44.0525723,100 C44.5788584,100 45,100.400107 45,101 C45,101.5 44.5788584,102 44.0525723,102 C43.4211416,102 43,101.5 43,101 C43,100.400107 43.4211416,100 44.0525723,100 Z" id="路径" fill="#000000"></path>
            <path d="M49,110 C49.5,110 50,110.400107 50,111 C50,111.5 49.5,112 49,112 C48.3999286,112 48,111.5 48,111 C48,110.400107 48.3999286,110 49,110 Z" id="路径" fill="#000000"></path>
            <path d="M38,115 C38.5,115 39,115.399929 39,116 C39,116.5 38.5,117 38,117 C37.400107,117 37,116.5 37,116 C37,115.399929 37.400107,115 38,115 Z" id="路径" fill="#000000"></path>
            <path d="M113,86 C112.400107,86 112,86.4209933 112,86.9473289 C112,87.5790067 112.400107,88 113,88 C113.5,88 114,87.5790067 114,86.9473289 C114,86.4209933 113.5,86 113,86 Z" id="路径" fill="#000000"></path>
            <path d="M103,92 C102.399929,92 102,92.5 102,93 C102,93.599893 102.399929,94 103,94 C103.5,94 104,93.599893 104,93 C104,92.5 103.5,92 103,92 Z" id="路径" fill="#000000"></path>
            <path d="M118,100 C117.399929,100 117,100.400107 117,101 C117,101.5 117.399929,102 118,102 C118.5,102 119,101.5 119,101 C119,100.400107 118.5,100 118,100 Z" id="路径" fill="#000000"></path>
            <path d="M113,110 C112.400107,110 112,110.400107 112,111 C112,111.5 112.400107,112 113,112 C113.5,112 114,111.5 114,111 C114,110.400107 113.5,110 113,110 Z" id="路径" fill="#000000"></path>
            <path d="M124.052671,115 C123.420993,115 123,115.399929 123,116 C123,116.5 123.420993,117 124.052671,117 C124.579007,117 125,116.5 125,116 C125,115.399929 124.579007,115 124.052671,115 Z" id="路径" fill="#000000"></path>
        </g>
    </g>
</svg>