<?xml version="1.0" encoding="UTF-8"?>
<svg width="332px" height="200px" viewBox="0 0 332 200" version="1.1" xmlns="http://www.w3.org/2000/svg" xmlns:xlink="http://www.w3.org/1999/xlink">
    <title>Slice 1</title>
    <g id="页面-1" stroke="none" stroke-width="1" fill="none" fill-rule="evenodd">
        <g id="logo.zlibrary" transform="translate(0, 100)" fill-rule="nonzero">
            <path d="M287,18 L300.826942,60.4882223 L300.832836,60.4858364 L301.007294,61 C301.669172,60.7232345 302.38822,60.5556243 303.147346,60.5442912 C303.961874,60.5305722 304.746344,60.6934106 305.471875,60.9928423 L305.63926,60.5246075 L305.666372,60.5341511 L319,18 L318.181346,18 L305.118834,59.62333 L313.259992,18 L312.465503,18 L304.493498,58.6446298 L308.310937,18 L307.527056,18 L303.63123,59.7951155 C303.574649,59.7915367 303.521015,59.7825895 303.464434,59.7802036 L303.547537,59.7790107 L303.79331,18 L303.008251,18 L302.764247,59.7915367 L302.783696,59.7915367 C302.750101,59.7939226 302.716506,59.7998874 302.682912,59.8028698 L299.266254,18 L298.480606,18 L301.812981,59.0335331 L293.070063,18 L292.270269,18 L300.787453,57.9687016 L287.823958,18 L287,18 Z" id="路径" fill="#72ADCE"></path>
            <path d="M33.1519654,24.1008408 L22,73.0046943 L30.5453331,75 L41.6972985,26.0976937 L33.1519654,24.1008408 Z M42.0723619,24.4503912 L44,15.9981026 L35.4546669,14 L33.526441,22.4522292 L42.0723619,24.4503912 Z" id="形状" fill="#626062"></path>
            <polygon id="路径" fill="#626062" points="308 100 308 75 299 75 299 100 303.498796 95.4396738"></polygon>
            <polygon id="路径" fill="#626062" points="9 75 9 18.21594 9 11.8582293 9 10.1711613 9 4.58026786 9 0 0 0 0 4.58026786 0 10.1711613 0 11.8582293 0 18.21594 0 75"></polygon>
            <path d="M56,75 L65.3071383,75 L65.3071383,12.7401615 L56,12.7401615 L56,75 Z M56,8.02457595 L65.3071383,8.02457595 L65.3071383,0 L64.8227981,0 L56,0 L56,8.02457595 Z M65.3071383,9.26026245 L56,9.26026245 L56,11.504357 L65.3071383,11.504357 L65.3071383,9.26026245 Z M104.942017,65.8982351 C110.706198,60.1424815 113.587992,53.2133217 113.587992,45.1100472 C113.587992,36.9465586 110.706198,30.0754286 104.942017,24.3798301 C99.2369741,18.6239584 92.3544937,15.746672 84.1786653,15.746672 C79.1022595,15.746672 74.4788507,16.8913881 70.317901,19.1465218 L70.317901,29.9413638 C74.2239659,26.3496555 78.8059781,24.5556314 84.1786653,24.5556314 C89.8251615,24.5556314 94.6496395,26.5525532 98.7070976,30.6041314 C102.765147,34.6569494 104.765194,39.4722423 104.765194,45.1100472 C104.765194,50.8057047 102.765147,55.6209977 98.7070976,59.6737566 C94.7070034,63.6661834 89.8848909,65.6632823 84.1786653,65.6632823 C78.8095264,65.6632823 74.1802038,63.8716195 70.317901,60.3355206 L70.317901,71.0725099 C74.4788507,73.3275846 79.1022595,74.4722417 84.1786653,74.4722417 C92.2959471,74.471061 99.2369741,71.5949552 104.942017,65.8982351 Z M151.849095,24.7892855 L158.907807,17.7422951 C156.023647,16.3909032 152.788798,15.7453733 149.201487,15.7453733 C143.614129,15.7453733 138.673149,17.448427 134.496823,20.8545343 L134.496823,18.0938978 L125.675208,15.157578 L125.675208,74.471061 L134.496823,74.471061 L134.496823,39.2361679 C134.496823,35.1832909 135.908448,31.7181502 138.791425,28.8408637 C141.67322,25.9635183 145.142255,24.5544508 149.201487,24.5544508 C150.200919,24.5544508 151.08385,24.6134251 151.849095,24.7892855 Z M211.162143,45.1100472 C211.162143,50.8057047 209.165053,55.6209977 205.104046,59.6737566 C201.106318,63.6661834 196.283614,65.6632823 190.575614,65.6632823 C184.871754,65.6632823 179.988729,63.6661834 175.989818,59.6737566 C171.989724,55.679972 169.990268,50.8057047 169.990268,45.1100472 C169.990268,39.4132089 171.989724,34.5980341 175.989818,30.6041314 C180.047276,26.5525532 184.871754,24.5556314 190.575614,24.5556314 C196.223293,24.5556314 201.046588,26.5525532 205.104046,30.6041314 C209.165053,34.6569494 211.162143,39.4722423 211.162143,45.1100472 Z M211.162143,74.7012911 L219.984941,75 L219.984941,14.1837045 L211.162143,17.9475541 L211.162143,24.1436966 C205.456509,18.5636263 198.575803,15.7453733 190.575614,15.7453733 C182.458924,15.7453733 175.519671,18.6227187 169.756081,24.3785904 C164.049265,30.0741889 161.166878,37.0044704 161.166878,45.1088665 C161.166878,53.1531077 164.049265,60.0822675 169.756081,65.8970544 C175.578809,71.5937746 182.518062,74.471061 190.575614,74.471061 C198.575803,74.471061 205.456509,71.6516273 211.162143,66.0729738 L211.162143,74.7012911 Z M263.038588,24.7892855 L270.096708,17.7422951 C267.214322,16.3909032 263.979473,15.7453733 260.390979,15.7453733 C254.803621,15.7453733 249.863824,17.448427 245.686907,20.8545343 L245.686907,18.0938978 L236.864109,15.157578 L236.864109,74.471061 L245.686907,74.471061 L245.686907,39.2361679 C245.686907,35.1832909 247.099123,31.7181502 249.980917,28.8408637 C252.862121,25.9635183 256.332338,24.5544508 260.390979,24.5544508 C261.390412,24.5544508 262.275707,24.6134251 263.038588,24.7892855 Z M332,15.1563973 L321.480533,17.9304344 L305.765201,60.4400097 L301.435116,60.4400097 L285.78661,17.7041595 L275.199726,15.1563973 L295.485834,70.1982257 L311.919692,70.2141647 L332,15.1563973 Z" id="形状" fill="#626062"></path>
        </g>
        <text id="Walrus" font-family="PingFangSC-Semibold, PingFang SC" font-size="72" font-weight="500" fill="#72ADCE">
            <tspan x="48" y="76">Walrus</tspan>
        </text>
    </g>
</svg>