<?xml version="1.0" encoding="UTF-8"?>
<svg width="400px" height="400px" viewBox="0 0 400 400" version="1.1" xmlns="http://www.w3.org/2000/svg" xmlns:xlink="http://www.w3.org/1999/xlink">
    <title>Slice 1</title>
    <g id="页面-1" stroke="none" stroke-width="1" fill="none" fill-rule="evenodd">
        <rect id="矩形" fill="#000000" x="0" y="0" width="400" height="400"></rect>
        <g id="book" transform="translate(23, 45)" fill="#FFFFFF" fill-rule="nonzero">
            <path d="M193.024812,27.6279941 L193.024812,284.656654 L207.541937,266.779854 C209.748187,264.065228 213.785625,263.601756 216.5655,265.742558 C216.962625,266.051539 217.293563,266.382591 217.602438,266.779854 L217.6245,266.735713 L230.729625,282.824833 L230.729625,17.7405788 L193.024812,27.6279941 L193.024812,27.6279941 Z M55.33275,170.708605 C52.9279375,171.635551 50.21425,170.443764 49.287625,168.038121 C48.361,165.632477 49.5303125,162.917852 51.9571875,161.968837 C66.6066875,156.164394 82.4255,153.427699 98.5531875,153.427699 C115.276563,153.427699 132.419125,156.363025 149.098375,161.880556 C151.547313,162.697151 152.893125,165.345565 152.076813,167.817419 C151.2605,170.267203 148.613,171.613481 146.164063,170.774816 C130.4335,165.588337 114.28375,162.807501 98.5531875,162.807501 C83.5065625,162.807501 68.9011875,165.345565 55.33275,170.708605 L55.33275,170.708605 Z M55.33275,140.737378 C52.9279375,141.664323 50.21425,140.494606 49.287625,138.066893 C48.361,135.661249 49.5303125,132.924554 51.9571875,131.997609 C66.6066875,126.171096 82.4255,123.434401 98.5531875,123.434401 C115.276563,123.434401 132.419125,126.369727 149.098375,131.887258 C151.547313,132.703853 152.893125,135.352267 152.076813,137.824121 C151.2605,140.295975 148.613,141.642253 146.164063,140.825658 C130.4335,135.617109 114.28375,132.836273 98.5531875,132.836273 C83.5065625,132.836273 68.9011875,135.352267 55.33275,140.737378 L55.33275,140.737378 Z M55.33275,113.524915 C52.9279375,114.473931 50.21425,113.260074 49.287625,110.85443 C48.361,108.448787 49.5303125,105.734162 51.9571875,104.785146 C66.6066875,98.9586336 82.4255,96.2219383 98.5531875,96.2219383 C115.276563,96.2219383 132.419125,99.1793349 149.098375,104.696866 C151.547313,105.49139 152.893125,108.161875 152.076813,110.633729 C151.2605,113.083513 148.613,114.42979 146.164063,113.591126 C130.4335,108.404647 114.28375,105.601741 98.5531875,105.601741 C83.5065625,105.601741 68.9011875,108.139805 55.33275,113.524915 L55.33275,113.524915 Z M55.33275,84.8778948 C52.9279375,85.8269101 50.21425,84.6351234 49.287625,82.2294799 C48.361,79.8017663 49.5303125,77.0871411 51.9571875,76.1381258 C66.6066875,70.3336833 82.4255,67.596988 98.5531875,67.596988 C115.276563,67.596988 132.419125,70.5323144 149.098375,76.0498453 C151.547313,76.8664399 152.893125,79.5148547 152.076813,81.9867086 C151.2605,84.4585624 148.613,85.7827698 146.164063,84.9661753 C130.4335,79.7796962 114.28375,76.9988606 98.5531875,76.9988606 C83.5065625,76.9988606 68.9011875,79.5148547 55.33275,84.8778948 L55.33275,84.8778948 Z M55.33275,58.9234294 C52.9279375,59.8503746 50.21425,58.680658 49.287625,56.2750146 C48.361,53.8693711 49.5303125,51.1326758 51.9571875,50.1836605 C66.6066875,44.3792179 82.4255,41.6425226 98.5531875,41.6425226 C115.276563,41.6425226 132.419125,44.5778491 149.098375,50.09538 C151.547313,50.9119745 152.893125,53.5603894 152.076813,56.0322432 C151.2605,58.4820269 148.613,59.8283045 146.164063,59.0117099 C130.4335,53.8252309 114.28375,51.0443953 98.5531875,51.0443953 C83.5065625,51.0443953 68.9011875,53.5824595 55.33275,58.9234294 L55.33275,58.9234294 Z M338.990313,47.8000871 C346.756313,48.2194195 353,54.5314748 353,62.1898077 L353,258.768399 C353,266.691573 346.315062,273.180189 338.174,273.180189 L243.636187,273.180189 L243.636187,300.811984 L243.614125,300.811984 C243.614125,302.621734 242.77575,304.475625 241.18725,305.689481 C238.385312,307.874424 234.347875,307.410951 232.141625,304.696326 L212.572187,280.772312 L191.965812,306.108814 C190.818562,307.830283 188.810875,309 186.582563,309 C183.008437,309 180.11825,306.152954 180.11825,302.710015 L180.11825,273.180189 L14.826,273.180189 C6.6849375,273.180189 0,266.691573 0,258.768399 L0,62.1898077 C0,54.9728773 5.5376875,48.9256634 12.6859375,47.9325078 L12.6859375,28.6432198 C12.6859375,24.5381768 15.179,20.9848869 18.79725,19.4179081 C46.728375,5.69029126 74.1079375,-0.378992728 101.04625,0.0182694967 C126.5505,0.415531722 151.414938,6.59516633 175.749875,17.5640178 C202.335187,5.13853817 228.435125,-0.356922605 254.16,0.0182694967 C281.1645,0.437601845 307.463,7.34555053 333.14375,19.5503289 C336.85025,21.3159388 339.012375,24.9133689 339.012375,28.6432198 L339.012375,28.6432198 L339.012375,47.8000871 L338.990313,47.8000871 Z M243.636188,211.163142 C247.122063,210.986581 250.652063,210.920371 254.16,210.964511 C275.95775,211.339703 297.292187,216.261341 318.207437,225.08939 L318.207437,35.0656258 C297.005375,25.7520336 275.538563,20.5214143 253.807,20.1682924 C250.431438,20.1241521 247.033813,20.1903625 243.636188,20.3889936 L243.636188,211.163142 L243.636188,211.163142 Z M100.715312,20.1903625 C78.851375,19.8593106 56.4579375,24.4940366 33.4688125,34.9552752 L33.4688125,224.846619 C56.3255625,215.003344 78.8293125,210.589319 101.04625,210.964511 C122.866062,211.339703 144.222562,216.261341 165.137812,225.08939 L165.137812,35.0656258 C143.891625,25.7520336 122.446875,20.5214143 100.715312,20.1903625 Z" id="形状"></path>
        </g>
        <g id="walrus" transform="translate(134, 101)">
            <path d="M2.57435993,110.34117 C6.58607543,96.4605242 25.1564692,38.3554739 29.6211127,28.3485289 C35.1209773,16.0819251 44.1150161,1.62024723 65.4676488,2.00761731 C86.820397,1.62024723 95.8790722,16.0819251 101.3143,28.3485289 C105.843696,38.3554739 124.348864,96.4605242 128.425574,110.34117 C154.243197,197.886277 -23.2429163,197.886277 2.57435993,110.34117 Z" id="路径" stroke="#000000" stroke-width="1.65919" fill="#98EFE4"></path>
            <path d="M102,28 C101.805309,27.4767086 101.610617,27.0843275 101.416042,26.6918298 C95.9653781,14.2643291 86.8808616,-0.321638548 65.46759,0.0054016808 C44.0543184,-0.321638548 35.0347377,14.2643291 29.5191384,26.6918298 C29.3893827,27.0843275 29.1946914,27.4767086 29,28 C37.6303138,23.0290231 49.2453549,19.6278037 65.46759,19.7585974 C81.6898251,19.6278037 93.3048663,23.0290231 102,28 Z" id="路径" stroke="#000000" stroke-width="1.65919" fill="#E9CCFF"></path>
            <path d="M66,8.01004662 C65.7391209,8.01004662 65.4781254,8.01004662 65.2172462,8.01004662 C50.4098533,7.81614465 36.6460933,10.4015389 29.92735,18.1575027 C26.5353394,22.1001071 24.8393923,27.1415815 23.2086067,31.8597707 C22.6214541,33.6695456 23.2737683,36.771885 25.1655494,38 C35.1458637,32.3768657 47.0831206,28.1756562 65.7391209,28.3695813 L66,28.3695813 L66,8.01004662 Z" id="路径" stroke="#000000" stroke-width="1.65919" fill="#E9CCFF"></path>
            <path d="M65,8.01004662 C65.2607149,8.01004662 65.5215461,8.01004662 65.7822611,8.01004662 C80.5803336,7.81614465 94.3354301,10.4015389 101.049944,18.1575027 C104.43982,22.1001071 106.199936,27.1415815 107.764459,31.8597707 C108.416362,33.6695456 107.699338,36.771885 105.808748,38 C95.8347154,32.3768657 83.9049723,28.1756562 65.2607149,28.3695813 L65,28.3695813 L65,8.01004662 Z" id="路径" stroke="#000000" stroke-width="1.65919" fill="#E9CCFF"></path>
            <path d="M32.8220225,39 L59.5203594,39 C61.8475242,39 63.7868857,40.8006676 63.980845,43.1159755 C64.2393804,43.4375396 64.6272988,43.8877065 65.7908235,43.8877065 C66.6959281,43.9519505 67.2129989,43.5017836 67.5362259,43.1159755 C67.6656089,40.8006676 69.6695467,39 71.9967114,39 L98.6950483,39 C101.151596,39 102.379812,41.0579877 103.155534,43.4375396 L106,52.1840162 C106,52.1840162 102.703039,57.7790951 101.992009,58.5508261 C101.216288,59.5155186 99.987956,60.158647 98.6950483,59.9658003 L71.9967114,56.1712742 C69.6048552,55.7854661 67.5362259,54.1776452 67.5362259,51.7337346 L67.5362259,48.9683745 L63.980845,48.9683745 L63.980845,51.7337346 C63.980845,54.1776452 61.9767919,55.7854661 59.5203594,56.1712742 L32.8220225,59.9658003 C31.3351556,60.158647 30.0422479,59.3869159 29.2665263,58.229262 C28.6847639,57.4575309 25,52.1840162 25,52.1840162 L28.361537,43.4375396 C29.2665263,41.1222317 30.3654748,39 32.8220225,39 Z" id="路径" stroke="#000000" stroke-width="1.65919" fill="#000000"></path>
            <path d="M26.7719703,35 L53.5944424,35 C56.0563309,35 58,36.996996 58,39.4447782 L58,51.6196855 C58,54.0031189 56.0563309,56 53.5944424,56 L31.4367531,56 C31.0479731,56 25.1522461,52.6503004 24.6340268,52.3926754 C24.1156919,52.1349355 24.5043564,44.2116452 24.0508567,44.0828327 C22.9494673,43.760744 20.8762433,51.9417742 21.0057982,50.9755081 L22.3664128,39.4447782 C22.6255224,37.0613448 24.3100819,35 26.7719703,35 Z" id="路径" stroke="#000000" stroke-width="1.65919" fill="#E9CCFF"></path>
            <path d="M104.396413,35 L77.4294288,35 C74.9541495,35 73,36.996996 73,39.4447782 L73,51.6196855 C73,54.0031189 74.9541495,56 77.4294288,56 L100.227607,56 C100.618484,56 106.024871,52.6503004 106.546001,52.3926754 C107.067131,52.1349355 106.676254,44.2116452 107.132199,44.0828327 C108.304712,43.760744 110.063424,51.9417742 109.998239,50.9755081 L108.890911,39.4447782 C108.630404,37.0613448 106.871692,35 104.396413,35 Z" id="路径" stroke="#000000" stroke-width="1.65919" fill="#E9CCFF"></path>
            <path d="M32.4727709,35 L59.2446424,35 C61.5782167,35 63.5229199,36.8680686 63.7174133,39.1226895 C63.9766608,39.5092419 64.3656477,39.9601431 65.5324927,39.9601431 C66.4399745,39.9601431 66.9585852,39.5735907 67.2827023,39.1871532 C67.4123261,36.8680686 69.4217833,35 71.7554733,35 L98.5272291,35 C100.990543,35 103,36.996996 103,39.4447782 L103,51.6196855 C103,54.0031189 100.990543,56 98.5272291,56 L71.7554733,56 C69.2921595,56 67.2827023,54.0031189 67.2827023,51.6196855 L67.2827023,48.8496996 L63.7174133,48.8496996 L63.7174133,51.6196855 C63.7174133,54.0031189 61.7078405,56 59.2446424,56 L32.4727709,56 C30.0094572,56 28,54.0031189 28,51.6196855 L28,39.4447782 C28,36.996996 30.0094572,35 32.4727709,35 Z" id="路径" stroke="#000000" stroke-width="1.65919" fill="#E9CCFF"></path>
            <path d="M33.4021861,38 L59.5978139,38 C60.3626324,38 61,38.6356009 61,39.3982993 L61,51.6017007 C61,52.3643991 60.3626324,53 59.5978139,53 L33.4021861,53 C32.6373676,53 32,52.3643991 32,51.6017007 L32,39.3982993 C32,38.6356009 32.6373676,38 33.4021861,38 Z" id="路径" stroke="#000000" stroke-width="1.65919" fill="#000000"></path>
            <path d="M98.5978139,38 L72.4021861,38 C71.6373676,38 71,38.6356009 71,39.3982993 L71,51.6017007 C71,52.3643991 71.6373676,53 72.4021861,53 L98.5978139,53 C99.4264146,53 100,52.3643991 100,51.6017007 L100,39.3982993 C100,38.6356009 99.4264146,38 98.5978139,38 Z" id="路径" stroke="#000000" stroke-width="1.65919" fill="#000000"></path>
            <path d="M54.7372994,62.2551048 C44.9543661,64.3146846 31.2194282,78.1525255 28.1744107,86.3264359 C26.9434831,89.6089737 26.1012148,92.6339922 25.5828869,95.4659 C20.2055673,125.651562 53.5063718,129.385189 64.9737263,118.24975 C76.5059151,129.385189 109.741885,125.651562 104.4294,95.4659 C103.911072,92.6339922 103.068804,89.6089737 101.837876,86.3264359 C98.7928587,78.1525255 85.0579208,64.3146846 75.2749875,62.2551048 C68.8610121,60.5816317 60.8921686,60.5816317 54.7372994,62.2551048 Z" id="路径" stroke="#000000" stroke-width="1.65919" fill="#000000"></path>
            <path d="M64.9999429,106 C77.685208,106 88,113.203255 88,121.999716 C88,130.861219 77.685208,138 64.9999429,138 C52.2506789,138 42,130.861219 42,121.999716 C42,113.203255 52.2506789,106 64.9999429,106 Z" id="路径" stroke="#000000" stroke-width="1.65919" fill="#000000"></path>
            <path d="M65.9999429,102 C78.7493211,102 89,109.203317 89,117.999829 C89,126.86127 78.7493211,134 65.9999429,134 C53.314792,134 43,126.86127 43,117.999829 C43,109.203317 53.314792,102 65.9999429,102 Z" id="路径" stroke="#000000" stroke-width="1.65919" fill="#98EFE4"></path>
            <path d="M56.9371963,70.0639932 C48.6990986,71.6761303 37.2177621,83.1544541 34.6879918,89.8608983 C33.650072,92.5692656 32.9364877,95.0841534 32.4824412,97.4700932 C28.0066581,122.361305 55.8992765,125.456747 65.4995136,116.234839 C75.1646641,125.456747 102.992369,122.361305 98.5165861,97.4700932 C98.1274529,95.0841534 97.4138686,92.5692656 96.3759489,89.8608983 C93.8461785,83.1544541 82.364842,71.6761303 74.1267444,70.0639932 C68.7428683,68.6453356 62.0616503,68.6453356 56.9371963,70.0639932 Z" id="路径" stroke="#000000" stroke-width="1.65919" fill="#000000"></path>
            <path d="M54.8631501,53.3126569 C44.6464575,55.3869833 30.420946,69.7128899 27.252416,78.0750649 C26.0238753,81.5106137 25.1186469,84.686915 24.6013241,87.603969 C19.0404214,118.719211 53.5699008,122.543168 65.5323414,111.069908 C77.4300735,122.543168 111.959553,118.719211 106.39865,87.603969 C105.881327,84.686915 105.040692,81.5106137 103.747443,78.0750649 C100.579028,69.7128899 86.3534013,55.3869833 76.1368242,53.3126569 C69.4766826,51.5624477 61.1999793,51.5624477 54.8631501,53.3126569 Z" id="路径" stroke="#000000" stroke-width="1.65919" fill="#98EFE4"></path>
            <path d="M38,74 C27.4193166,75.7627549 19.5484242,77.7966471 12,82" id="路径" stroke="#000000" stroke-width="1.65919"></path>
            <path d="M93,74 C103.554428,75.7627549 111.405789,77.7966471 119,82" id="路径" stroke="#000000" stroke-width="1.65919"></path>
            <path d="M36,87 C31.5385138,87.9332937 18.8755939,90.5332682 7,101" id="路径" stroke="#000000" stroke-width="1.65919"></path>
            <path d="M95,87 C99.317485,87.9332937 111.508151,90.5332682 123,101" id="路径" stroke="#000000" stroke-width="1.65919"></path>
            <path d="M34,100 C29.9417889,102.374381 20.4508734,113.861317 16.5235497,122.909081 C16.327277,123.42306 16.3926623,123.679478 16,124" id="路径" stroke="#000000" stroke-width="1.65919"></path>
            <path d="M97,100 C101.043354,102.374381 110.499913,113.861317 114.412506,122.909081 C114.674261,123.42306 114.542802,123.679478 115,124" id="路径" stroke="#000000" stroke-width="1.65919"></path>
            <path d="M76.4366042,120.184292 C78.8437293,119.473271 81.3809473,129.163666 76.3714998,132.846685 C76.3063953,132.911218 72.3379232,136.270417 74.8101527,138.013974 C77.5425681,139.952283 79.6244028,147.252634 79.8845887,153.260011 C80.3399719,163.274226 77.8678584,173.739023 76.3063953,176 C77.0871849,175.935467 83.2025962,174.901778 83.2025962,174.643644 C83.1374917,174.320977 85.4795123,159.26854 85.4795123,155.651207 C85.4145239,145.572459 86,135.236729 86,125.028913 C86,120.442426 84.6988388,120.442426 79.8196002,120.119758 C79.364101,120.055225 77.0871849,119.926158 76.7618946,120.055225 L76.4366042,120.184292 Z" id="路径" fill="#000000"></path>
            <path d="M54.5330666,120.184292 C52.1335754,119.473271 49.6691863,129.163666 54.6627469,132.846685 C54.7276449,132.911218 58.6187492,136.270417 56.219258,138.013974 C53.4955082,139.952283 51.3553777,147.252634 51.0960171,153.260011 C50.6419623,163.274226 53.1063515,173.739023 54.7276449,176 C53.8845492,175.935467 47.7885322,174.901778 47.8534302,174.643644 C47.8534302,174.320977 45.5187214,159.26854 45.5187214,155.651207 C45.5836194,145.572459 45,135.236729 45,125.028913 C45,120.442426 46.2969191,120.442426 51.1607994,120.119758 C51.6796364,120.055225 53.9494472,119.926158 54.2088079,120.055225 L54.5330666,120.184292 Z" id="路径" fill="#000000"></path>
            <path d="M56.8797599,58.7016869 C58.394983,59.2837082 61.359734,61.8060698 64.5221585,62 C64.6539017,62 64.785645,62 64.8515753,62 C64.9833185,62 65.1150617,62 65.1809921,62 C68.4750423,61.8060698 71.5057237,59.2837082 73.0868772,58.7016869 C72.955134,58.3783161 71.5715365,56.6968571 71.0445637,55.4679788 C70.1880566,53.7217995 73.1528075,52.9457326 74.8657043,53.1397782 C78.8187056,53.5277539 71.7033972,48.9359576 64.8515753,49.0006779 C57.4067327,48.9359576 51.5431611,53.5924742 55.0350024,53.1397782 C56.6820863,52.8811277 59.7126501,53.7217995 58.8562605,55.4679788 C58.3291702,56.6968571 57.0115031,58.3783161 56.8797599,58.7016869 Z" id="路径" stroke="#000000" stroke-width="1.65919" fill="#98EFE4" stroke-linecap="round" stroke-linejoin="round"></path>
            <path d="M50,116.609035 C47.3669712,116.934464 43.8122708,116.675048 40.5865962,115.895641 C35.7153227,114.597403 32.2922561,112.389587 32.2922561,112 C30.1200044,129.269465 30.5149059,153.226072 34.7937685,170.884892 C35.5836889,174.260775 38.0193256,197.698551 45.3262359,196.983999 C48.8809363,196.594875 47.8277483,179.844011 47.8277483,160.562682 C47.8277483,142.708142 48.8809363,122.712261 50,116.609035 Z" id="路径" stroke="#000000" stroke-width="1.65919" fill="#F7F7F7"></path>
            <path d="M80,116.609035 C82.6286371,116.934464 86.2430132,116.675048 89.4630468,115.895641 C94.2602159,114.597403 97.7431835,112.389587 97.6774207,112 C99.9118326,129.269465 99.4517273,153.226072 95.2459548,170.884892 C94.4573871,174.260775 92.0259212,197.698551 84.7315234,196.983999 C81.1171473,196.594875 82.1686491,179.844011 82.2344119,160.562682 C82.2344119,142.708142 81.1171473,122.712261 80,116.609035 Z" id="路径" stroke="#000000" stroke-width="1.65919" fill="#F7F7F7"></path>
            <line x1="42" y1="39" x2="33" y2="48" id="路径" stroke="#FFFFFF" stroke-width="1.65919"></line>
            <line x1="97" y1="39" x2="84" y2="52" id="路径" stroke="#FFFFFF" stroke-width="1.65919"></line>
            <line x1="48" y1="40" x2="36" y2="52" id="路径" stroke="#FFFFFF" stroke-width="1.65919"></line>
            <line x1="86" y1="40" x2="74" y2="52" id="路径" stroke="#FFFFFF" stroke-width="1.65919"></line>
            <line x1="65.5" y1="111" x2="65.5" y2="96" id="路径" stroke="#000000" stroke-width="1.65919"></line>
            <path d="M39.5,70 C39.75,70 40,70.2104967 40,70.4736644 C40,70.7895033 39.75,71 39.5,71 C39.1999643,71 39,70.7895033 39,70.4736644 C39,70.2104967 39.1999643,70 39.5,70 Z" id="路径" fill="#000000"></path>
            <path d="M47.5262417,75 C47.7894094,75 48,75.25 48,75.5 C48,75.7999465 47.7894094,76 47.5262417,76 C47.2104967,76 47,75.7999465 47,75.5 C47,75.25 47.2104967,75 47.5262417,75 Z" id="路径" fill="#000000"></path>
            <path d="M35.5262861,81 C35.7894292,81 36,81.2000535 36,81.5 C36,81.75 35.7894292,82 35.5262861,82 C35.2105708,82 35,81.75 35,81.5 C35,81.2000535 35.2105708,81 35.5262861,81 Z" id="路径" fill="#000000"></path>
            <path d="M39.5,89 C39.75,89 40,89.2000535 40,89.5 C40,89.75 39.75,90 39.5,90 C39.1999643,90 39,89.75 39,89.5 C39,89.2000535 39.1999643,89 39.5,89 Z" id="路径" fill="#000000"></path>
            <path d="M30.5,93 C30.75,93 31,93.1999643 31,93.5 C31,93.75 30.75,94 30.5,94 C30.2000535,94 30,93.75 30,93.5 C30,93.1999643 30.2000535,93 30.5,93 Z" id="路径" fill="#000000"></path>
            <path d="M91.5,70 C91.2000535,70 91,70.2104967 91,70.4736644 C91,70.7895033 91.2000535,71 91.5,71 C91.75,71 92,70.7895033 92,70.4736644 C92,70.2104967 91.75,70 91.5,70 Z" id="路径" fill="#000000"></path>
            <path d="M83.5,75 C83.1999643,75 83,75.25 83,75.5 C83,75.7999465 83.1999643,76 83.5,76 C83.75,76 84,75.7999465 84,75.5 C84,75.25 83.75,75 83.5,75 Z" id="路径" fill="#000000"></path>
            <path d="M95.5,81 C95.1999643,81 95,81.2000535 95,81.5 C95,81.75 95.1999643,82 95.5,82 C95.75,82 96,81.75 96,81.5 C96,81.2000535 95.75,81 95.5,81 Z" id="路径" fill="#000000"></path>
            <path d="M91.5,89 C91.2000535,89 91,89.2000535 91,89.5 C91,89.75 91.2000535,90 91.5,90 C91.75,90 92,89.75 92,89.5 C92,89.2000535 91.75,89 91.5,89 Z" id="路径" fill="#000000"></path>
            <path d="M100.526336,93 C100.210497,93 100,93.1999643 100,93.5 C100,93.75 100.210497,94 100.526336,94 C100.789503,94 101,93.75 101,93.5 C101,93.1999643 100.789503,93 100.526336,93 Z" id="路径" fill="#000000"></path>
        </g>
    </g>
</svg>